<?xml version="1.0" encoding="utf-8"?>
<!-- Generator: Adobe Illustrator 24.3.0, SVG Export Plug-In . SVG Version: 6.00 Build 0)  -->
<svg version="1.1" id="Layer_1" xmlns="http://www.w3.org/2000/svg" xmlns:xlink="http://www.w3.org/1999/xlink" x="0px" y="0px"
	 viewBox="0 0 56 52" style="enable-background:new 0 0 56 52;" xml:space="preserve">
<style type="text/css">
	.st0{fill:#0F143C;}
	.st1{fill:url(#SVGID_1_);}
	.st2{fill:#1E2355;}
	.st3{fill:url(#SVGID_2_);}
	.st4{fill:#E5E6E6;}
	.st5{fill:#FFFFFF;stroke:#D0D2D3;stroke-width:0.1746;stroke-miterlimit:10;}
	.st6{fill:#FFDD00;}
	.st7{fill:#061922;}
	.st8{fill:#EC1C24;}
	.st9{fill:#FFFFFF;}
	.st10{fill:#B01117;}
</style>
<g>
	<g>
		<path class="st0" d="M28.61,51.63L28.61,51.63c-25.88,0-27.57-11.47-27.57-22.49l0,0c0-8.93,5.58-12.99,26.89-12.99l0,0
			c25.69,0,27.11,5.31,27.11,15.65v-1.76C55.04,43.87,51.16,51.63,28.61,51.63z"/>
		<linearGradient id="SVGID_1_" gradientUnits="userSpaceOnUse" x1="28.0403" y1="51.5205" x2="28.0403" y2="16.1534">
			<stop  offset="0" style="stop-color:#203A68"/>
			<stop  offset="0.592" style="stop-color:#1E2355"/>
		</linearGradient>
		<path class="st1" d="M28.6,51.52L28.6,51.52c-25.37,0-27.03-12.08-27.03-22.38l0,0c0-7.17,4.35-12.99,26.36-12.99l0,0
			c23.67,0,26.57,6.22,26.57,13.9l0,0C54.51,45.39,46.24,51.52,28.6,51.52z"/>
		<ellipse class="st2" cx="27.89" cy="17.47" rx="6.24" ry="5.32"/>
		<polygon class="st2" points="13.43,3.6 17.62,7.46 18.18,7.46 24.43,13.65 23.77,13.65 17.45,8.17 17.45,7.65 13.25,3.78 		"/>
		<circle class="st2" cx="12" cy="2.41" r="1.78"/>
		<polygon class="st2" points="42.31,3.6 38.12,7.46 37.55,7.46 31.31,13.65 31.96,13.65 38.29,8.17 38.29,7.65 42.49,3.78 		"/>
		<circle class="st2" cx="43.73" cy="2.41" r="1.78"/>
		<g>
			<linearGradient id="SVGID_2_" gradientUnits="userSpaceOnUse" x1="27.8501" y1="42.4624" x2="27.8501" y2="16.1535">
				<stop  offset="0" style="stop-color:#B9A1CD;stop-opacity:0"/>
				<stop  offset="0.0464" style="stop-color:#A996C3;stop-opacity:0.0502"/>
				<stop  offset="0.1855" style="stop-color:#807AA9;stop-opacity:0.2006"/>
				<stop  offset="0.3277" style="stop-color:#5D6294;stop-opacity:0.3543"/>
				<stop  offset="0.4714" style="stop-color:#425083;stop-opacity:0.5096"/>
				<stop  offset="0.6173" style="stop-color:#2F4377;stop-opacity:0.6674"/>
				<stop  offset="0.7666" style="stop-color:#243C70;stop-opacity:0.8289"/>
				<stop  offset="0.9249" style="stop-color:#20396E"/>
			</linearGradient>
			<path class="st3" d="M4.37,42.46c-0.02,0-0.04,0-0.06,0c-0.11-0.17-0.23-0.33-0.33-0.51c-1.28-2.13-1.85-4.5-2.17-6.95
				c-0.08-0.61-0.16-1.21-0.24-1.82c0-1.86,0-3.73,0-5.59c0,0,0.15-1.38,0.3-2.05c0.34-1.43,1.09-2.66,2.03-3.76
				c1.2-1.41,2.7-2.39,4.37-3.1c1.28-0.54,2.6-0.96,3.95-1.22c1.4-0.27,2.81-0.53,4.22-0.73c1.2-0.16,2.42-0.24,3.64-0.33
				c1.28-0.09,2.56-0.21,3.85-0.23c2.46-0.04,4.92-0.01,7.37-0.01c0.58,0,1.17-0.02,1.75,0.01c1.43,0.08,2.86,0.18,4.29,0.29
				c0.98,0.07,1.96,0.13,2.92,0.27c1.57,0.24,3.13,0.51,4.68,0.85c1.96,0.43,3.82,1.16,5.48,2.36c1.8,1.29,3.03,3.01,3.65,5.18
				c0.08,0.29,0.06,0.68-0.06,0.94c-0.2,0.42-0.49,0.8-0.8,1.14c-0.97,1.04-2.2,1.57-3.53,1.91c-1.99,0.5-4.02,0.54-6.05,0.61
				c-1.85,0.07-3.7,0.06-5.55,0.14c-1.23,0.05-2.48,0.11-3.69,0.31c-2.58,0.42-5.16,0.89-7.72,1.42c-1.95,0.41-3.88,0.92-5.81,1.43
				c-2.02,0.54-4.04,1.13-6.04,1.73c-2.1,0.63-4.19,1.31-6.29,1.97c-1.81,0.57-3.08,1.74-3.67,3.61
				C4.64,41.03,4.53,41.76,4.37,42.46z"/>
		</g>
		<path class="st4" d="M28.49,49.32L28.49,49.32c-20.53,0-21.88-10.52-21.88-19.48l0,0c0-6.24,3.52-11.31,21.34-11.31l0,0
			c19.16,0,21.51,5.42,21.51,12.1l0,0C49.46,43.99,42.77,49.32,28.49,49.32z"/>
		<path class="st5" d="M28.44,48.93L28.44,48.93c-19.37,0-20.63-10.27-20.63-19.03l0,0c0-6.1,3.32-11.04,20.13-11.04l0,0
			c18.07,0,20.28,5.29,20.28,11.82l0,0C48.22,43.71,41.91,48.93,28.44,48.93z"/>
		<g>
			<path class="st6" d="M11.86,34.62c0,7.42,7.54,11.95,16.67,11.95c9.2,0,16.49-4.62,16.49-12.36c0-7.62-7.49-13.65-16.54-13.65
				C21.57,20.57,11.86,24.81,11.86,34.62z"/>
			<path class="st6" d="M36.17,22.9c2.85-6.93,8.42-12.41,11.51-14.32c0.57,1.05,1.83,3.14,0.55,9.88c-1.74,2.4-5.59,6.42-8.06,7.97
				C37.69,27.99,35.51,24.51,36.17,22.9z"/>
			<path class="st7" d="M53.93,5.94c0.65,0.64-1.1,5.82-5.73,12.55c0.5-2.6,0.8-8.07-0.56-9.89C49.33,7.35,53.24,5.27,53.93,5.94z"
				/>
			<path class="st7" d="M37.14,28.08c1.64-0.05,3.03,1.44,3.03,3.09c0,1.8-1.16,3.1-2.85,3.1c-1.69,0-3.14-1.13-3.14-3.1
				C34.19,29.58,35.23,28.13,37.14,28.08z"/>
			<path class="st7" d="M19.88,28.2c1.76,0,2.89,1.42,2.89,2.93c0,1.76-1.06,3.26-2.93,3.26c-1.83,0-3.01-1.44-3.01-3.02
				C16.83,29.58,18.16,28.2,19.88,28.2z"/>
			<path class="st7" d="M27.93,34.44c0-0.16,1.09-0.16,1.1-0.01c0.01,0.19-0.36,0.4-0.55,0.4C28.29,34.83,27.92,34.63,27.93,34.44z"
				/>
			<path class="st8" d="M14.47,34.58c1.45-0.61,3.32,0.9,4.01,2.64c0.78,1.96,0.39,4.21-0.87,4.69c-1.22,0.47-2.99-0.81-3.82-2.98
				C13.15,37.28,13.26,35.09,14.47,34.58z"/>
			<path class="st8" d="M42.93,34.07c1.14,0.43,1.38,2.78,0.49,4.82c-0.92,2.13-2.56,3.61-3.99,3.06c-1.23-0.48-1.66-2.78-0.68-4.88
				C40,34.44,41.8,33.64,42.93,34.07z"/>
			<path class="st9" d="M36.81,28.45c0.85,0,1.39,0.66,1.39,1.35c0,0.7-0.55,1.33-1.28,1.33c-0.86,0-1.4-0.69-1.4-1.29
				C35.51,29.13,36.04,28.45,36.81,28.45z"/>
			<path class="st9" d="M20.43,28.6c0.7,0,1.27,0.59,1.27,1.37c0,0.8-0.51,1.39-1.27,1.39c-0.85,0-1.36-0.71-1.36-1.39
				C19.08,29.1,19.78,28.6,20.43,28.6z"/>
			<path class="st10" d="M24.85,37.49c0.75-0.11,1.33-0.28,2.17-0.58c0.66-0.24,1.51-0.4,2.36-0.11c0.85,0.29,2.04,0.61,2.87,0.55
				c-0.23,3.16-2.19,5.92-3.76,5.92C26.86,43.28,24.95,40.36,24.85,37.49z"/>
			<path class="st8" d="M25.56,40.47c0.64-0.45,2.01-0.81,2.9-0.77c1.22,0.05,2.42,0.32,2.98,0.77c-0.77,1.66-1.94,2.8-2.95,2.8
				C27.45,43.28,26.29,42.08,25.56,40.47z"/>
			<path class="st7" d="M31.16,40.05c-1.69-0.88-3.71-0.87-5.31,0.01c-0.45,0.25-0.36,0.62,0.1,0.4c1.46-0.67,3.53-0.66,5.1,0.02
				C31.52,40.69,31.63,40.3,31.16,40.05z"/>
			<path class="st7" d="M33.3,36.53c-0.33,0.43-0.65,0.57-1.49,0.57c-0.57,0-2.37-0.63-3.33-0.63c-0.85,0-2.76,0.6-3.3,0.6
				c-0.7,0-1.1-0.23-1.41-0.65c-0.28-0.38-0.61-0.16-0.37,0.23c0.42,0.69,1.04,1.06,1.78,1.06c0.69,0,2.33-0.61,3.3-0.61
				c0.93,0,2.5,0.63,3.36,0.63c1.1,0,1.55-0.38,1.83-1.05C33.94,36.04,33.7,36.01,33.3,36.53z"/>
			<path class="st7" d="M31.98,37.45c-0.14,2.53-1.94,5.48-3.53,5.49c-1.39,0.01-3.27-3.03-3.36-5.42c-0.01-0.16-0.49-0.16-0.48,0
				c0.1,2.56,1.96,6.01,3.84,6c1.9-0.01,3.77-3.21,4.01-6.07C32.48,37.29,31.99,37.29,31.98,37.45z"/>
			<path class="st7" d="M36.19,22.01c-0.09,0.18,0.49,0.54,0.57,0.43c5.75-12.2,16.11-16.82,16.86-16.21
				c0.42,0.34-1.5,9.42-12.46,19.19c-0.05,0.04,0.26,0.54,0.32,0.49C52.86,16.58,55.14,6.33,54.09,5.66
				C52.54,4.66,42.34,9.29,36.19,22.01z"/>
			<path class="st7" d="M47.36,8.73c0.9,1.49,1.09,5.84,0.63,9.76c-0.03,0.25,0.61-0.51,0.65-0.69c0.61-3.38,0.4-8.04-0.76-9.48
				C47.8,8.23,47.32,8.66,47.36,8.73z"/>
			<path class="st6" d="M20.69,22.9c-2.85-6.93-8.42-12.41-11.51-14.32c-0.57,1.05-1.83,3.14-0.55,9.88
				c1.74,2.4,5.59,6.42,8.06,7.97C19.16,27.99,21.34,24.51,20.69,22.9z"/>
			<path class="st7" d="M2.93,5.94c-0.65,0.64,1.1,5.82,5.73,12.55c-0.5-2.6-0.8-8.07,0.56-9.89C7.52,7.35,3.61,5.27,2.93,5.94z"/>
			<path class="st7" d="M20.66,22.01c0.09,0.18-0.49,0.54-0.57,0.43C14.35,10.25,3.99,5.62,3.24,6.24
				C2.83,6.58,4.79,15.63,15.75,25.4c0.05,0.04-0.31,0.57-0.38,0.52C4,16.58,1.71,6.33,2.76,5.66C4.32,4.66,14.51,9.29,20.66,22.01z
				"/>
			<path class="st7" d="M9.5,8.73c-0.9,1.49-1.09,5.84-0.63,9.76c0.03,0.25-0.61-0.51-0.65-0.69c-0.61-3.38-0.4-8.04,0.76-9.48
				C9.05,8.23,9.53,8.66,9.5,8.73z"/>
			<path class="st7" d="M45.33,34.82c0.11-3.83-1.35-6.9-3.86-9.35c-0.58-0.56-0.82-0.29-0.18,0.45c2,2.33,3.28,5.14,3.21,8.97
				c-0.11,5.86-6.07,11.3-16.14,11.3c-9.95,0-15.67-5.63-16.01-11.41c-0.2-3.39,1.47-6.7,3.15-8.7c0.92-1.09,0.44-1.18-0.38-0.36
				c-1.8,1.8-3.74,5.34-3.71,9.03c0.06,6.48,6.57,12.14,16.96,12.14C39.3,46.87,45.15,41.19,45.33,34.82z"/>
			<path class="st7" d="M37.17,22.45c-2.43-1.65-5.86-2.24-8.78-2.24c-3,0-6.41,0.67-8.77,2.29c-0.74,0.51-0.65,0.87,0.28,0.36
				c2.71-1.47,5.96-1.85,8.65-1.85c2.83,0,5.9,0.39,8.34,1.75C37.63,23.18,38.03,23.03,37.17,22.45z"/>
		</g>
	</g>
</g>
</svg>
